{"title":"Cleaner True french Dvdrip Xvid AC3 FwD[L-S79]","uid":6550928,"size":1039718400,"categoryP":"video","categoryS":"movies","magnet":"?xt=urn:btih:5e97d72614f3610335dd4d87798ea457cfe2624a&amp;dn=Cleaner+True+french+Dvdrip+Xvid+AC3+FwD%5BL-S79%5D&amp;tr=udp%3A%2F%2Ftracker.openbittorrent.com%3A80&amp;tr=udp%3A%2F%2Fopen.demonii.com%3A1337&amp;tr=udp%3A%2F%2Ftracker.coppersurfer.tk%3A6969&amp;tr=udp%3A%2F%2Fexodus.desync.com%3A6969","seeders":0,"leechers":1,"uploader":"les-stefs79","files":1,"time":1311068023,"description":" &lt;a href=&quot;http://www.sortiescinema.fr/affiches/cleaner-affiche.jpg&quot; rel=&quot;nofollow&quot; target=&quot;_NEW&quot;&gt;http://www.sortiescinema.fr/affiches/cleaner-affiche.jpg&lt;/a&gt;\n\n\nAncien membre de la police de Trenton, Tom Cutler se recycle comme nettoyeur de scÃƒÂ¨nes de crimes, un mÃƒÂ©tier honnÃƒÂªte qui lui permet d'ÃƒÂ©lever seul sa fille Rose avec la conscience tranquille.\nLors de sa derniÃƒÂ¨re mission, il s'aperÃƒÂ§oit que le crime dont il a effacÃƒÂ© les traces n'a jamais ÃƒÂ©tÃƒÂ© signalÃƒÂ© ÃƒÂ  la police. Quand Ann Norcut, la femme qui habite la maison oÃƒÂ¹ il vient d'intervenir, lui demande de l'aider ÃƒÂ  trouver une piste sur son mari disparu, Tom comprend qu'il a ÃƒÂ©tÃƒÂ© piÃƒÂ©gÃƒÂ©.\nPour ÃƒÂ©viter de se voir impliquÃƒÂ© dans cet assassinat, il va falloir qu'il aide Ann ÃƒÂ  dÃƒÂ©couvrir la vÃƒÂ©ritÃƒÂ©. Eddie Lorenzo, son ancien co-ÃƒÂ©quipier et ami, peut l'aider. Mais Tom va vite dÃƒÂ©couvrir que tout le monde garde de lourds secrets.\n\nRÃƒÂ©alisÃƒÂ© par Renny Harlin\nAvec Samuel L. Jackson, Eva Mendes, Ed Harris...\n\nLong-mÃƒÂ©trage amÃƒÂ©ricain\nGenre : Thriller\nDurÃƒÂ©e : 01h25min\nAnnÃƒÂ©e de production : 2007\nDistributeur : Colifilms Diffusion \n\nCleaner Truefrench Dvdrip Xvid AC3 FwD.avi\nFormat : AVI\nFormat/Info : Audio Video Interleave\nFile size : 992 MiB\nDuration : 1h 25mn\nOverall bit rate : 1 627 Kbps\nWriting application : FairUse Wizard - http://fairusewizard.com\nWriting library : The best and REALLY easy backup tool\n\nVideo\nID : 0\nFormat : MPEG-4 Visual\nFormat profile : Advanced Simple@L5\nFormat settings, BVOP : 1\nFormat settings, QPel : No\nFormat settings, GMC : No warppoints\nFormat settings, Matrix : Default (MPEG)\nMuxing mode : Packed bitstream\nCodec ID : XVID\nCodec ID/Hint : XviD\nDuration : 1h 25mn\nBit rate : 1 169 Kbps\nWidth : 672 pixels\nHeight : 272 pixels\nDisplay aspect ratio : 2.471\nFrame rate : 25.000 fps\nColor space : YUV\nChroma subsampling : 4:2:0\nBit depth : 8 bits\nScan type : Progressive\nCompression mode : Lossy\nBits/(Pixel*Frame) : 0.256\nStream size : 713 MiB (72%)\nWriting library : XviD 1.2.0.dev47 (UTC 2006-11-01)\n\nAudio\nID : 1\nFormat : AC-3\nFormat/Info : Audio Coding 3\nMode extension : CM (complete main)\nCodec ID : 2000\nDuration : 1h 25mn\nBit rate mode : Constant\nBit rate : 448 Kbps\nChannel(s) : 6 channels\nChannel positions : Front: L C R, Side: L R, LFE\nSampling rate : 48.0 KHz\nBit depth : 16 bits\nCompression mode : Lossy\nStream size : 273 MiB (28%)\nAlignment : Split accross interleaves\nInterleave, duration : 40 ms (1.00 video frame)\nInterleave, preload duration : 500 ms\n","torrent":{"xt":"urn:btih:5e97d72614f3610335dd4d87798ea457cfe2624a","amp;dn":"Cleaner+True+french+Dvdrip+Xvid+AC3+FwD%5BL-S79%5D","amp;tr":["udp%3A%2F%2Ftracker.openbittorrent.com%3A80","udp%3A%2F%2Fopen.demonii.com%3A1337","udp%3A%2F%2Ftracker.coppersurfer.tk%3A6969","udp%3A%2F%2Fexodus.desync.com%3A6969"],"infoHash":"5e97d72614f3610335dd4d87798ea457cfe2624a","infoHashBuffer":{"type":"Buffer","data":[94,151,215,38,20,243,97,3,53,221,77,135,121,142,164,87,207,226,98,74]},"announce":[],"urlList":[]}}